<?xml version="1.0" standalone="no"?><!-- Generator: Gravit.io --><svg xmlns="http://www.w3.org/2000/svg" xmlns:xlink="http://www.w3.org/1999/xlink" style="isolation:isolate" viewBox="0 0 104 101" width="104" height="101"><defs><clipPath id="_clipPath_CSDVGZDM6Yj8PY6mcnDVfh6nUss5BNfA"><rect width="104" height="101"/></clipPath></defs><g clip-path="url(#_clipPath_CSDVGZDM6Yj8PY6mcnDVfh6nUss5BNfA)"><path d=" M 0 50.5 C 0 22.628291 23.300419 0 52 0 C 80.699581 0 104 22.628291 104 50.5 C 104 78.371709 80.699581 101 52 101 C 23.300419 101 0 78.371709 0 50.5 Z " fill="rgb(25,52,65)"/><path d=" M 59.037136 35.570329 L 59.037136 39.569353 L 59.037136 39.569353 Q 59.037136 41.808122 58.259548 43.688005 L 58.259548 43.688005 L 58.259548 43.688005 Q 57.48196 45.567888 56.114773 46.926531 L 56.114773 46.926531 L 56.114773 46.926531 Q 54.747585 48.285173 52.867702 49.054216 L 52.867702 49.054216 L 52.867702 49.054216 Q 50.987819 49.823259 48.78323 49.823259 L 48.78323 49.823259 L 36.786159 49.823259 L 36.786159 49.823259 Q 36.307644 49.823259 35.897487 49.652361 L 35.897487 49.652361 L 35.897487 49.652361 Q 35.487331 49.481462 35.188259 49.18239 L 35.188259 49.18239 L 35.188259 49.18239 Q 34.889187 48.883318 34.718288 48.473161 L 34.718288 48.473161 L 34.718288 48.473161 Q 34.54739 48.063005 34.54739 47.584489 L 34.54739 47.584489 L 34.54739 27.555193 L 34.54739 27.555193 Q 34.54739 27.093767 34.718288 26.683611 L 34.718288 26.683611 L 34.718288 26.683611 Q 34.889187 26.273454 35.188259 25.965837 L 35.188259 25.965837 L 35.188259 25.965837 Q 35.487331 25.65822 35.897487 25.487322 L 35.897487 25.487322 L 35.897487 25.487322 Q 36.307644 25.316423 36.786159 25.316423 L 36.786159 25.316423 L 48.78323 25.316423 L 48.78323 25.316423 Q 50.987819 25.316423 52.867702 26.085466 L 52.867702 26.085466 L 52.867702 26.085466 Q 54.747585 26.854509 56.114773 28.213152 L 56.114773 28.213152 L 56.114773 28.213152 Q 57.48196 29.571794 58.259548 31.460222 L 58.259548 31.460222 L 58.259548 31.460222 Q 59.037136 33.34865 59.037136 35.570329 L 59.037136 35.570329 Z  M 54.593776 39.569353 L 54.593776 35.570329 L 54.593776 35.570329 Q 54.593776 34.271501 54.175075 33.194841 L 54.175075 33.194841 L 54.175075 33.194841 Q 53.756374 32.118181 52.987331 31.357683 L 52.987331 31.357683 L 52.987331 31.357683 Q 52.218288 30.597185 51.150173 30.178484 L 51.150173 30.178484 L 51.150173 30.178484 Q 50.082058 29.759782 48.78323 29.759782 L 48.78323 29.759782 L 38.990749 29.759782 L 38.990749 45.3799 L 48.78323 45.3799 L 48.78323 45.3799 Q 50.082058 45.3799 51.150173 44.961198 L 51.150173 44.961198 L 51.150173 44.961198 Q 52.218288 44.542497 52.987331 43.781999 L 52.987331 43.781999 L 52.987331 43.781999 Q 53.756374 43.021501 54.175075 41.953386 L 54.175075 41.953386 L 54.175075 41.953386 Q 54.593776 40.885271 54.593776 39.569353 L 54.593776 39.569353 Z " fill-rule="evenodd" fill="rgb(252,255,245)"/><path d=" M 46.688 74.660109 C 46.429952 74.655031 46.181168 74.75628 46 74.940109 L 39.312 81.660109 C 38.914 82.058109 38.914 82.636109 39.312 83.034109 L 46 89.754109 C 46.184119 89.944885 46.437867 90.05264 46.703 90.05264 C 46.968133 90.05264 47.221881 89.944885 47.406 89.754109 L 48.094 89.034109 C 48.492 88.636109 48.492 88.058109 48.094 87.659109 L 42.813 82.347109 L 48.093 77.034109 C 48.493 76.636109 48.493 76.058109 48.093 75.659109 L 47.406 74.941109 C 47.213217 74.755474 46.954581 74.654034 46.687 74.659109 L 46.688 74.660109 Z  M 57.313 74.660109 C 57.063 74.660109 56.793 74.742109 56.593 74.940109 L 55.906 75.660109 C 55.508 76.058109 55.508 76.636109 55.906 77.035109 L 61.188 82.347109 L 55.906 87.660109 C 55.508 88.058109 55.508 88.636109 55.906 89.035109 L 56.594 89.753109 C 56.778119 89.943885 57.031867 90.05164 57.297 90.05164 C 57.562133 90.05164 57.815881 89.943885 58 89.753109 L 64.688 83.035109 C 65.086 82.636109 65.086 82.058109 64.688 81.659109 L 58 74.942109 C 57.819171 74.757546 57.570344 74.655556 57.312 74.660109 L 57.313 74.660109 Z " fill="rgb(252,255,245)"/><path d=" M 73.209567 54.182146 L 71.998997 55.308585 L 74.131555 58.740237 L 75.514537 58.551496 L 83.956257 66.407404 L 83.236185 67.050839 C 83.060291 67.208797 82.960943 67.426491 82.960943 67.653952 C 82.960943 67.881413 83.060291 68.099106 83.236185 68.257064 L 83.610512 68.606235 C 83.977463 68.947684 84.542642 68.947684 84.82016 68.606235 L 85.915482 69.624578 C 85.821439 70.141041 85.915482 70.751017 86.376475 71.179974 L 91.360742 75.791255 C 92.380311 76.736248 94.029124 76.736248 95.048693 75.791255 C 96.247277 74.76176 96.238057 73.223522 95.222027 72.27896 L 90.266342 67.640225 C 89.805348 67.211269 89.149815 67.040544 88.594778 67.211269 L 87.384208 66.192926 C 87.661727 65.851477 87.661727 65.324718 87.384208 65.066486 L 87.038463 64.745627 C 86.868707 64.581958 86.634755 64.489513 86.390305 64.489513 C 86.145856 64.489513 85.911904 64.581958 85.742148 64.745627 L 85.137324 65.308418 L 76.695603 57.453368 L 76.896596 56.166498 L 73.209567 54.182146 Z  M 91.18833 54.208741 C 89.369248 54.068043 86.960094 55.191051 85.828815 56.16564 C 84.442145 57.455941 84.665266 59.148603 85.770729 60.77778 L 83.812427 62.600845 L 85.195409 64.048144 C 85.932999 63.447605 87.020945 63.447605 87.758535 64.048144 L 88.219529 64.4771 L 89.027191 63.726427 C 90.694145 64.638388 92.430248 64.768791 93.752378 63.538544 C 95.041317 62.423257 96.442739 59.671072 95.797347 58.042754 L 93.204717 60.535849 C 93.034962 60.699518 92.801009 60.791962 92.55656 60.791962 C 92.312111 60.791962 92.078158 60.699518 91.908403 60.535849 L 89.228184 58.042754 C 89.05229 57.884795 88.952942 57.667102 88.952942 57.439641 C 88.952942 57.21218 89.05229 56.994486 89.228184 56.836528 L 91.909325 54.343433 C 91.676097 54.270291 91.433824 54.22503 91.18833 54.208741 Z  M 81.046464 64.906057 L 77.703336 68.015991 C 77.344238 67.940882 76.976971 67.904894 76.608936 67.908752 C 74.02737 67.908752 71.998997 69.79616 71.998997 72.198316 C 71.998997 74.600472 74.02737 76.487881 76.608936 76.487881 C 79.190502 76.487881 81.218875 74.600472 81.218875 72.198316 C 81.218875 71.759065 81.143272 71.33354 81.01696 70.938042 L 82.976184 69.114977 L 82.688524 68.766665 C 81.973306 68.112173 81.935191 67.050816 82.601857 66.353356 L 81.046464 64.906057 Z  M 88.19187 68.820713 C 88.308832 68.81328 88.423714 68.852237 88.508111 68.927952 L 93.954294 73.994786 C 94.137351 74.165121 94.137351 74.44129 93.954294 74.611625 C 93.771236 74.781961 93.474442 74.781961 93.291384 74.611625 L 87.846124 69.543934 C 87.757723 69.462555 87.70798 69.351653 87.70798 69.235943 C 87.70798 69.120233 87.757723 69.009331 87.846124 68.927952 C 87.939245 68.840445 88.076621 68.820713 88.19187 68.820713 Z  M 77.243264 69.972032 L 79.000573 71.608072 L 78.366245 73.83264 L 75.975531 74.422884 L 74.2173 72.786845 L 74.851627 70.562276 L 77.243264 69.972032 Z " fill="rgb(252,255,245)"/><path d=" M 20.406 50.5 L 8 55.5 L 8 69.094 L 21 76.5 L 32 69 L 32 55.5 L 20.406 50.5 Z  M 20.406 52.688 L 29.687 56.75 L 21.625 61.063 L 11.062 56.313 L 20.406 52.688 Z  M 20.062 54.75 C 19.262 54.75 18.551 54.887 18 55.188 C 17.3 55.586 17.187 56.012 17.187 56.313 C 17.187 56.813 17.687 57.414 18.687 57.813 C 19.387 58.211 20.007 58.398 20.407 58.5 L 20.5 58.5 C 20.602 58.5 20.688 58.508 20.688 58.406 L 20.906 58.094 C 20.906 57.992 21.008 57.906 20.906 57.906 C 20.805 57.906 20.789 57.789 20.687 57.688 C 20.289 57.586 19.813 57.387 19.313 57.188 C 18.414 56.789 18.313 56.508 18.313 56.406 C 18.313 56.207 18.586 56.008 18.687 55.906 C 19.488 55.508 20.707 55.508 21.907 55.906 C 22.305 56.106 22.707 56.207 22.907 56.406 C 23.007 56.406 22.992 56.508 23.094 56.406 L 23.594 56.188 C 23.695 56.188 23.812 56.102 23.812 56 C 23.812 55.898 24.102 55.914 24 55.812 C 23.898 55.711 23.492 55.488 22.594 55.187 C 21.780788 54.900512 20.925196 54.752787 20.063 54.75 L 20.062 54.75 Z  M 9.813 56.813 L 21 61.843 L 21 74.063 L 20.812 74.188 L 9.812 67.813 L 9.813 56.813 Z  M 14 60.5 C 13.898 60.5 13.906 60.594 13.906 60.594 L 11.813 66.688 C 11.813 66.789 11.805 66.898 11.906 67 L 12.688 67.5 L 12.906 67.5 C 12.906 67.5 13 67.508 13 67.406 L 13.5 65.813 L 15.406 66.813 L 16.094 69.406 C 16.094 69.508 16.188 69.492 16.188 69.594 L 17.094 70.094 L 17.188 70.094 C 17.289 70.094 17.406 70.008 17.406 69.906 C 17.508 69.707 17.5 69.696 17.5 69.594 L 15.312 61.094 C 15.312 60.992 15.188 61.008 15.188 60.906 L 14.188 60.5 L 14 60.5 Z  M 14.5 62.813 C 14.5 63.012 14.594 63.113 14.594 63.313 L 15.094 65.187 L 13.906 64.594 L 14.406 63 C 14.406 62.898 14.398 62.914 14.5 62.812 L 14.5 62.813 Z " fill="rgb(252,255,245)"/><path d=" M 64.147435 33.341733 L 69.103489 33.341733 L 57.499485 56.976987 L 57.499485 56.976987 Q 57.226048 57.523862 56.687718 57.857114 L 56.687718 57.857114 L 56.687718 57.857114 Q 56.149388 58.190366 55.499974 58.190366 L 55.499974 58.190366 L 55.499974 58.190366 Q 54.867649 58.190366 54.329319 57.857114 L 54.329319 57.857114 L 54.329319 57.857114 Q 53.790989 57.523862 53.500462 56.976987 L 53.500462 56.976987 L 41.913548 33.341733 L 46.886692 33.341733 L 55.499974 50.995542 L 64.147435 33.341733 Z " fill="rgb(252,255,245)"/></g></svg>